<svg width="100" height="20" viewBox="0 0 100 20" fill="none" xmlns="http://www.w3.org/2000/svg">
<path fill-rule="evenodd" clip-rule="evenodd" d="M11.7759 8.43179C8.9058 8.43179 6.57915 10.7585 6.57915 13.6285C6.57915 16.4986 8.9058 18.8253 11.7759 18.8253C14.646 18.8253 16.9726 16.4986 16.9726 13.6285C16.9726 10.7585 14.646 8.43179 11.7759 8.43179ZM5.7655 13.6285C5.7655 10.3091 8.45644 7.61815 11.7759 7.61815C15.0953 7.61815 17.7863 10.3091 17.7863 13.6285C17.7863 16.948 15.0953 19.6389 11.7759 19.6389C8.45644 19.6389 5.7655 16.948 5.7655 13.6285Z" fill="#282828"/>
<path fill-rule="evenodd" clip-rule="evenodd" d="M57.1389 0.813643C52.1649 0.813643 48.1327 4.84586 48.1327 9.81986C48.1327 14.7939 52.1649 18.8261 57.1389 18.8261C62.1129 18.8261 66.1451 14.7939 66.1451 9.81986C66.1451 4.84586 62.1129 0.813643 57.1389 0.813643ZM47.319 9.81986C47.319 4.3965 51.7155 0 57.1389 0C62.5622 0 66.9587 4.3965 66.9587 9.81986C66.9587 15.2432 62.5622 19.6397 57.1389 19.6397C51.7155 19.6397 47.319 15.2432 47.319 9.81986Z" fill="#282828"/>
<path fill-rule="evenodd" clip-rule="evenodd" d="M0.813643 7.90454V3.38638H0V15.2526C0 17.6749 1.96402 19.6389 4.38635 19.6389V18.8253C2.41338 18.8253 0.813643 17.2255 0.813643 15.2526V8.71819H4.38635V7.90454H0.813643Z" fill="#282828"/>
<path fill-rule="evenodd" clip-rule="evenodd" d="M29.4311 0.40683H30.2447V11.2682H43.3631V0.40683H44.1767V19.2321H43.3631V12.0818H30.2447V19.2321H29.4311V0.40683Z" fill="#282828"/>
<path fill-rule="evenodd" clip-rule="evenodd" d="M93.2679 0.40683H100V1.22047H94.0816V18.4184H100V19.2321H93.2679V0.40683Z" fill="#282828"/>
<path fill-rule="evenodd" clip-rule="evenodd" d="M99.0171 12.1485H93.6747V11.3349H99.0171V12.1485Z" fill="#282828"/>
<path fill-rule="evenodd" clip-rule="evenodd" d="M69.9253 0.40683H71.1984L79.6766 17.7022L88.2607 0.40683H89.4234V19.2321H88.6098V1.53364L79.6721 19.5415L70.7389 1.31797V19.2321H69.9253V0.40683Z" fill="#282828"/>
</svg>
